<svg width="914" height="501" viewBox="0 0 914 501" fill="none" xmlns="http://www.w3.org/2000/svg">
<g clip-path="url(#clip0)">
<path d="M323.89 501.913H321.787C321.787 475.681 311.374 450.523 292.837 431.974C274.301 413.424 249.16 403.004 222.945 403.004C196.731 403.004 171.59 413.424 153.053 431.974C134.517 450.523 124.103 475.681 124.103 501.913H122C122 475.123 132.635 449.429 151.566 430.485C170.497 411.542 196.173 400.899 222.945 400.899C249.718 400.899 275.393 411.542 294.324 430.485C313.255 449.429 323.89 475.123 323.89 501.913Z" fill="#3F3D56"/>
<path d="M808.638 260.953H806.535C806.535 161.158 725.401 79.9694 625.675 79.9694C525.948 79.9694 444.814 161.158 444.814 260.953H442.711C442.711 159.998 524.788 77.865 625.675 77.865C726.561 77.865 808.638 159.998 808.638 260.953Z" fill="#3F3D56"/>
<path d="M410.535 117.126C433.474 117.126 452.07 98.5177 452.07 75.563C452.07 52.6084 433.474 34 410.535 34C387.596 34 369 52.6084 369 75.563C369 98.5177 387.596 117.126 410.535 117.126Z" fill="#FF6584"/>
<path d="M283.818 328.647L355.175 243.609H495.467L581.201 327.173L579.469 328.287H580.087V502.1H283.916V328.287L283.818 328.647Z" fill="#3F3D56"/>
<path d="M326.75 290.677H342.925V234.647H326.75V290.677Z" fill="#3F3D56"/>
<path d="M354.062 242.495L442.023 345.69V502.1H283.916V326.059L354.062 242.495Z" fill="#6FCF97"/>
<path d="M421.696 365.169H389.406V398.208H421.696V365.169Z" fill="#3F3D56"/>
<path d="M421.696 410.124H389.406V443.162H421.696V410.124Z" fill="#3F3D56"/>
<path d="M421.696 365.169H389.406V398.208H421.696V365.169Z" fill="white"/>
<path d="M421.696 410.124H389.406V443.162H421.696V410.124Z" fill="white"/>
<path d="M377.039 365.169H344.75V398.208H377.039V365.169Z" fill="#3F3D56"/>
<path d="M377.039 410.124H344.75V443.162H377.039V410.124Z" fill="#3F3D56"/>
<path d="M377.039 365.169H344.75V398.208H377.039V365.169Z" fill="white"/>
<path d="M377.039 410.124H344.75V443.162H377.039V410.124Z" fill="white"/>
<path d="M332.383 365.169H300.094V398.208H332.383V365.169Z" fill="#3F3D56"/>
<path d="M332.383 410.124H300.094V443.162H332.383V410.124Z" fill="#3F3D56"/>
<path d="M332.383 365.169H300.094V398.208H332.383V365.169Z" fill="white"/>
<path d="M332.383 410.124H300.094V443.162H332.383V410.124Z" fill="white"/>
<path d="M646.705 42.0891H631.984V78.9171H646.705V42.0891Z" fill="#6FCF97"/>
<path d="M645.653 75.7605H520.523V501.913H645.653V75.7605Z" fill="#6FCF97"/>
<path d="M696.126 75.7605H645.653V501.913H696.126V75.7605Z" fill="#3F3D56"/>
<path d="M562.058 112.588H543.131V131.528H562.058V112.588Z" fill="white"/>
<path d="M592.552 112.588H573.625V131.528H592.552V112.588Z" fill="white"/>
<path d="M623.046 112.588H604.119V131.528H623.046V112.588Z" fill="white"/>
<path d="M562.584 155.73H543.657V174.67H562.584V155.73Z" fill="white"/>
<path d="M593.078 155.73H574.151V174.67H593.078V155.73Z" fill="white"/>
<path d="M623.572 155.73H604.644V174.67H623.572V155.73Z" fill="white"/>
<path d="M563.11 198.871H544.182V217.811H563.11V198.871Z" fill="white"/>
<path d="M593.603 198.871H574.676V217.811H593.603V198.871Z" fill="white"/>
<path d="M624.097 198.871H605.17V217.811H624.097V198.871Z" fill="white"/>
<path d="M563.635 242.013H544.708V260.953H563.635V242.013Z" fill="white"/>
<path d="M594.129 242.013H575.202V260.953H594.129V242.013Z" fill="white"/>
<path d="M624.623 242.013H605.696V260.953H624.623V242.013Z" fill="white"/>
<path d="M564.161 285.154H545.234V304.094H564.161V285.154Z" fill="white"/>
<path d="M594.655 285.154H575.728V304.094H594.655V285.154Z" fill="white"/>
<path d="M625.149 285.154H606.222V304.094H625.149V285.154Z" fill="white"/>
<path d="M564.687 328.295H545.76V347.236H564.687V328.295Z" fill="white"/>
<path d="M595.181 328.295H576.254V347.236H595.181V328.295Z" fill="white"/>
<path d="M625.675 328.295H606.747V347.236H625.675V328.295Z" fill="white"/>
<path d="M565.213 371.437H546.285V390.377H565.213V371.437Z" fill="white"/>
<path d="M595.707 371.437H576.779V390.377H595.707V371.437Z" fill="white"/>
<path d="M626.2 371.437H607.273V390.377H626.2V371.437Z" fill="white"/>
<path d="M565.738 414.578H546.811V433.518H565.738V414.578Z" fill="white"/>
<path d="M596.232 414.578H577.305V433.518H596.232V414.578Z" fill="white"/>
<path d="M596.232 465.085H577.305V500.861H596.232V465.085Z" fill="white"/>
<path d="M626.726 414.578H607.799V433.518H626.726V414.578Z" fill="white"/>
<path d="M654.065 42.0891H645.653V77.8649H654.065V42.0891Z" fill="#3F3D56"/>
<path d="M804.432 229.386H789.711V251.213H804.432V229.386Z" fill="#6FCF97"/>
<path d="M803.38 249.342H678.25V501.913H803.38V249.342Z" fill="#6FCF97"/>
<path d="M853.853 249.342H803.38V501.913H853.853V249.342Z" fill="#3F3D56"/>
<path d="M721.888 285.154H702.961V304.094H721.888V285.154Z" fill="white"/>
<path d="M752.382 285.154H733.455V304.094H752.382V285.154Z" fill="white"/>
<path d="M782.876 285.154H763.948V304.094H782.876V285.154Z" fill="white"/>
<path d="M722.414 328.295H703.487V347.236H722.414V328.295Z" fill="white"/>
<path d="M752.908 328.295H733.98V347.236H752.908V328.295Z" fill="white"/>
<path d="M783.402 328.295H764.474V347.236H783.402V328.295Z" fill="white"/>
<path d="M722.94 371.437H704.012V390.377H722.94V371.437Z" fill="white"/>
<path d="M753.433 371.437H734.506V390.377H753.433V371.437Z" fill="white"/>
<path d="M783.927 371.437H765V390.377H783.927V371.437Z" fill="white"/>
<path d="M723.465 414.578H704.538V433.518H723.465V414.578Z" fill="white"/>
<path d="M753.959 414.578H735.032V433.518H753.959V414.578Z" fill="white"/>
<path d="M753.959 465.085H735.032V500.861H753.959V465.085Z" fill="white"/>
<path d="M784.453 414.578H765.526V433.518H784.453V414.578Z" fill="white"/>
<path d="M811.792 229.386H803.38V250.589H811.792V229.386Z" fill="#3F3D56"/>
<path d="M150.033 451.491C165.156 451.491 177.415 439.224 177.415 424.091C177.415 408.958 165.156 396.69 150.033 396.69C134.91 396.69 122.651 408.958 122.651 424.091C122.651 439.224 134.91 451.491 150.033 451.491Z" fill="#8CBA3A"/>
<path opacity="0.2" d="M170.401 405.789C172.955 411.768 173.302 418.461 171.379 424.671C169.456 430.882 165.388 436.206 159.904 439.692C154.419 443.178 147.874 444.599 141.439 443.701C135.004 442.803 129.097 439.644 124.775 434.789C126.335 438.442 128.67 441.712 131.619 444.372C134.567 447.032 138.058 449.018 141.85 450.194C145.642 451.37 149.644 451.707 153.578 451.181C157.513 450.655 161.287 449.28 164.638 447.15C167.989 445.021 170.837 442.187 172.985 438.846C175.133 435.506 176.529 431.738 177.077 427.804C177.626 423.869 177.312 419.863 176.16 416.061C175.007 412.26 173.042 408.755 170.401 405.789H170.401Z" fill="black"/>
<path d="M150.108 424.091H150.184L151.537 501.776H148.679L150.108 424.091Z" fill="#3F3D56"/>
<path d="M155.094 466.406L154.463 465.207L149.937 467.591L150.568 468.79L155.094 466.406Z" fill="#3F3D56"/>
<path d="M759.652 39.2858L769.331 31.5384C761.812 30.7082 758.722 34.8122 757.457 38.0605C751.582 35.6194 745.187 38.8186 745.187 38.8186L764.555 45.8546C763.578 43.243 761.877 40.9644 759.652 39.2858Z" fill="#3F3D56"/>
<path d="M413.465 113.856L423.144 106.108C415.625 105.278 412.535 109.382 411.27 112.631C405.395 110.189 399 113.389 399 113.389L418.368 120.425C417.391 117.813 415.69 115.534 413.465 113.856Z" fill="#3F3D56"/>
<path d="M891.465 117.856L901.145 110.108C893.625 109.278 890.535 113.382 889.27 116.631C883.396 114.189 877 117.389 877 117.389L896.368 124.425C895.391 121.813 893.69 119.534 891.465 117.856Z" fill="#3F3D56"/>
<path d="M491.465 95.8558L501.144 88.1085C493.625 87.2783 490.535 91.3823 489.27 94.6306C483.395 92.1894 477 95.3887 477 95.3887L496.368 102.425C495.391 99.8131 493.69 97.5345 491.465 95.8558Z" fill="#3F3D56"/>
<path d="M365.465 197.856L375.145 190.108C367.625 189.278 364.535 193.382 363.27 196.631C357.396 194.189 351 197.389 351 197.389L370.368 204.425C369.391 201.813 367.69 199.534 365.465 197.856Z" fill="#3F3D56"/>
<path d="M748.085 185.546L757.765 177.798C750.245 176.968 747.155 181.072 745.891 184.32C740.016 181.879 733.62 185.078 733.62 185.078L752.988 192.114C752.011 189.503 750.31 187.224 748.085 185.546Z" fill="#3F3D56"/>
<path d="M233.46 479.816H168.267V481.921H178.434V501.913H180.537V481.921H220.139V501.913H222.242V481.921H233.46V479.816Z" fill="#3F3D56"/>
<path d="M299.706 488.234C297.133 488.234 294.605 488.912 292.377 490.201C290.115 488.154 287.308 486.808 284.296 486.327C281.284 485.846 278.197 486.249 275.41 487.49C272.623 488.73 270.256 490.753 268.596 493.313C266.935 495.873 266.054 498.861 266.057 501.913H314.374C314.111 498.2 312.451 494.724 309.729 492.186C307.008 489.648 303.426 488.236 299.706 488.234Z" fill="#3F3D56"/>
<path d="M548.914 488.234C546.341 488.234 543.813 488.912 541.586 490.201C539.323 488.154 536.516 486.808 533.504 486.327C530.492 485.846 527.406 486.249 524.619 487.49C521.832 488.73 519.464 490.753 517.804 493.313C516.144 495.873 515.262 498.861 515.266 501.913H563.582C563.319 498.2 561.659 494.724 558.938 492.186C556.216 489.648 552.635 488.236 548.914 488.234Z" fill="#3F3D56"/>
<path d="M711.899 488.234C709.325 488.234 706.798 488.912 704.57 490.201C702.308 488.154 699.5 486.808 696.489 486.327C693.477 485.846 690.39 486.249 687.603 487.49C684.816 488.73 682.449 490.753 680.789 493.313C679.128 495.873 678.247 498.861 678.25 501.913H726.567C726.303 498.2 724.644 494.724 721.922 492.186C719.201 489.648 715.619 488.236 711.899 488.234Z" fill="#3F3D56"/>
<path d="M893.648 488.234C891.075 488.234 888.547 488.912 886.32 490.201C884.058 488.154 881.25 486.808 878.238 486.327C875.226 485.846 872.14 486.249 869.353 487.49C866.566 488.73 864.199 490.753 862.538 493.313C860.878 495.873 859.996 498.861 860 501.913H908.317C908.053 498.2 906.394 494.724 903.672 492.186C900.95 489.648 897.369 488.236 893.648 488.234Z" fill="#3F3D56"/>
<path d="M90.6484 488.104C88.0752 488.104 85.5474 488.783 83.3199 490.072C81.0576 488.025 78.2502 486.679 75.2383 486.197C72.2264 485.716 69.1397 486.12 66.3527 487.36C63.5658 488.6 61.1985 490.623 59.5383 493.183C57.8781 495.744 56.9963 498.731 57 501.783H105.317C105.053 498.07 103.394 494.594 100.672 492.056C97.9502 489.518 94.3687 488.106 90.6484 488.104Z" fill="#3F3D56"/>
<path d="M257.645 428.257H240.821V445.093H248.62V501.82H250.723V445.093H257.645V428.257Z" fill="#3F3D56"/>
<path d="M233.589 473.52H168.395V475.625H233.589V473.52Z" fill="#3F3D56"/>
<path d="M233.589 468.259H168.395V470.364H233.589V468.259Z" fill="#3F3D56"/>
<path d="M233.589 462.998H168.395V465.103H233.589V462.998Z" fill="#3F3D56"/>
<path d="M104 469C94.0589 469 86 461.165 86 451.5C86 441.835 94.0589 434 104 434C113.941 434 122 441.835 122 451.5C122 461.165 113.941 469 104 469Z" fill="#8CBA3A"/>
<path opacity="0.2" d="M91.4879 440C89.8358 443.799 89.6118 448.053 90.8556 452C92.0995 455.947 94.7303 459.33 98.278 461.546C101.826 463.761 106.059 464.664 110.221 464.093C114.384 463.523 118.204 461.515 121 458.43C119.991 460.751 118.48 462.829 116.573 464.519C114.666 466.21 112.408 467.472 109.956 468.22C107.503 468.967 104.914 469.181 102.369 468.847C99.8242 468.513 97.3834 467.639 95.216 466.285C93.0486 464.932 91.2064 463.131 89.817 461.008C88.4276 458.885 87.5244 456.491 87.1697 453.99C86.8151 451.49 87.0176 448.944 87.7633 446.528C88.5089 444.112 89.7798 441.885 91.4879 440Z" fill="black"/>
<path d="M104 451H103.947L103 502H105L104 451Z" fill="#3F3D56"/>
<path d="M100.953 478.856L101.363 478.078L104.299 479.625L103.89 480.403L100.953 478.856Z" fill="#3F3D56"/>
</g>
<defs>
<clipPath id="clip0">
<rect width="929" height="501" fill="white"/>
</clipPath>
</defs>
</svg>
