<svg width="91" height="91" viewBox="0 0 91 91" fill="none" xmlns="http://www.w3.org/2000/svg">
<g id="add_a_photo_24px">
<path id="icon/image/add_a_photo_24px" fill-rule="evenodd" clip-rule="evenodd" d="M32.2293 24.6458H20.8543V36.0208H13.271V24.6458H1.896V17.0625H13.271V5.6875H20.8543V17.0625H32.2293V24.6458ZM69.5014 24.6458H81.521C85.6918 24.6458 89.1043 28.0583 89.1043 32.2292V77.7292C89.1043 81.9 85.6918 85.3125 81.521 85.3125H20.8543C16.6835 85.3125 13.271 81.9 13.271 77.7292V43.6042H20.8543V77.7292H81.521V32.2292H66.1647L59.226 24.6458H39.8127V17.0625H62.5627L69.5014 24.6458ZM51.1877 73.9375C40.7227 73.9375 32.2293 65.4442 32.2293 54.9792C32.2293 44.5142 40.7227 36.0208 51.1877 36.0208C61.6527 36.0208 70.146 44.5142 70.146 54.9792C70.146 65.4442 61.6527 73.9375 51.1877 73.9375ZM51.1876 43.6042C57.4439 43.6042 62.5626 48.7229 62.5626 54.9792C62.5626 61.2354 57.4439 66.3542 51.1876 66.3542C44.9314 66.3542 39.8126 61.2354 39.8126 54.9792C39.8126 48.7229 44.9314 43.6042 51.1876 43.6042Z" fill="black" fill-opacity="0.54"/>
</g>
</svg>
