<svg width="165" height="165" viewBox="0 0 165 165" fill="none" xmlns="http://www.w3.org/2000/svg">
<path d="M163.211 82.3556C163.211 127.011 127.011 163.211 82.3556 163.211C37.7003 163.211 1.5 127.011 1.5 82.3556C1.5 37.7003 37.7003 1.5 82.3556 1.5C127.011 1.5 163.211 37.7003 163.211 82.3556Z" fill="#C4C4C4" stroke="#575757" stroke-width="3"/>
<path d="M82 82C92.725 82 101.5 73.225 101.5 62.5C101.5 51.775 92.725 43 82 43C71.275 43 62.5 51.775 62.5 62.5C62.5 73.225 71.275 82 82 82Z" fill="#4B4B4B"/>
<path d="M121 112.27C121 96.02 95.195 89 82 89C68.805 89 43 96.02 43 112.27V121.5H121V112.27Z" fill="#4B4B4B"/>
</svg>
