<svg width="733" height="516" viewBox="0 0 733 516" fill="none" xmlns="http://www.w3.org/2000/svg">
<g clip-path="url(#clip0)">
<path d="M89.9854 258.159H96.5103V516.239H89.9854V258.159Z" fill="#3F3D56"/>
<path d="M29.7685 291.048C29.3531 381.293 92.7591 454.744 92.7591 454.744C92.7591 454.744 156.838 381.881 157.254 291.637C157.669 201.392 94.2633 127.941 94.2633 127.941C94.2633 127.941 30.1838 200.804 29.7685 291.048Z" fill="#3F3D56"/>
<path d="M220 383H224V516H220V383Z" fill="#3F3D56"/>
<path d="M189.478 396.505C189.264 442.92 221.876 480.698 221.876 480.698C221.876 480.698 254.833 443.223 255.047 396.808C255.26 350.393 222.649 312.615 222.649 312.615C222.649 312.615 189.692 350.091 189.478 396.505Z" fill="#3F3D56"/>
<path d="M146.804 190.784C154.507 177.75 169.747 177.143 169.747 177.143C169.747 177.143 184.597 175.241 194.124 195.092C203.003 213.594 215.258 231.458 196.097 235.789L192.636 225.002L190.492 236.592C187.764 236.788 185.027 236.835 182.294 236.732C161.774 236.069 142.231 236.926 142.86 229.553C143.697 219.751 139.392 203.325 146.804 190.784Z" fill="#2F2E41"/>
<path d="M174.545 215.329C174.545 215.329 164.59 229.285 170.563 240.582C176.536 251.88 156.626 263.842 156.626 263.842L142.025 231.943C142.025 231.943 159.28 220.645 154.635 210.012L174.545 215.329Z" fill="#FBBEBE"/>
<path d="M167.908 221.31C158.378 221.31 150.652 213.574 150.652 204.031C150.652 194.488 158.378 186.753 167.908 186.753C177.438 186.753 185.163 194.488 185.163 204.031C185.163 213.574 177.438 221.31 167.908 221.31Z" fill="#FBBEBE"/>
<path d="M227.624 224.005L213.204 205.375C213.204 205.375 208.127 185.847 200.773 186.837C193.419 187.827 203.677 210.256 203.677 210.256L218.006 230.878L227.624 224.005Z" fill="#FBBEBE"/>
<path d="M154.634 471.85L149.989 496.439L140.034 499.098L142.688 469.857L154.634 471.85Z" fill="#FBBEBE"/>
<path d="M54.4204 445.268L36.5013 469.857L29.2009 473.18L23.2279 463.211L41.147 439.951L54.4204 445.268Z" fill="#FBBEBE"/>
<path d="M158.616 253.209L169.687 238.616C169.687 238.616 191.136 242.576 193.127 244.57C195.118 246.563 187.818 283.114 187.818 283.114C187.818 283.114 186.49 293.083 180.517 298.399L174.544 302.387L125.433 292.418L123.587 270.537C122.914 262.567 123.911 254.544 126.515 246.983C129.119 239.421 133.271 232.488 138.706 226.626L147.252 227.796L158.616 253.209Z" fill="#575A89"/>
<path d="M190.473 245.899L193.791 244.57L209.055 243.241C209.055 243.241 214.365 241.911 213.037 239.253C211.71 236.595 210.383 235.93 213.037 235.266C215.692 234.601 216.356 233.937 215.692 231.943C215.028 229.949 211.046 225.962 211.046 225.962L222.329 216.658C222.329 216.658 222.939 217.09 223.926 217.891C229.528 222.432 247.252 238.817 234.275 255.203C219.01 274.475 201.091 285.773 186.491 281.785L190.473 245.899Z" fill="#575A89"/>
<path d="M175.872 299.064V308.368C175.872 308.368 181.845 319.665 179.854 330.298C177.863 340.931 177.199 346.248 177.199 346.248C176.983 355.291 175.417 364.251 172.554 372.83C167.908 386.122 183.172 473.18 163.926 474.509C144.68 475.838 134.061 477.167 128.088 470.521C122.115 463.876 138.043 349.571 138.043 349.571C138.043 349.571 83.622 463.211 72.3397 458.559C61.0573 453.907 32.5196 443.274 35.8379 437.293C39.1563 431.312 122.778 298.399 122.778 298.399L125.433 292.418L175.872 299.064Z" fill="#2F2E41"/>
<path d="M144.016 491.788C144.016 491.788 154.635 491.123 154.635 494.446C154.635 497.769 159.944 509.066 159.944 509.066C159.944 509.066 163.926 522.357 153.307 521.028C142.689 519.699 136.052 507.737 136.052 507.737L138.707 495.11L144.016 491.788Z" fill="#2F2E41"/>
<path d="M33.1836 468.528C33.1836 468.528 42.4749 462.547 41.8113 466.534C41.1476 470.521 40.4839 481.155 35.8383 481.819C31.1926 482.484 17.2556 486.471 16.5919 487.8C15.9283 489.129 0.000244141 494.446 0.000244141 485.807C0.000244141 477.167 9.95525 470.521 9.95525 470.521L21.2376 461.882C21.2376 461.882 28.5379 461.218 29.8653 465.87C31.1926 470.521 33.1836 468.528 33.1836 468.528Z" fill="#2F2E41"/>
<path d="M167.882 188.243C161.796 188.243 156.862 183.303 156.862 177.209C156.862 171.115 161.796 166.175 167.882 166.175C173.968 166.175 178.901 171.115 178.901 177.209C178.901 183.303 173.968 188.243 167.882 188.243Z" fill="#2F2E41"/>
<path d="M180.061 174.305C180.061 171.58 179.053 168.951 177.233 166.926C175.413 164.9 172.908 163.62 170.202 163.333C170.587 163.292 170.974 163.271 171.361 163.271C174.284 163.271 177.087 164.434 179.153 166.503C181.22 168.572 182.381 171.379 182.381 174.305C182.381 177.232 181.22 180.038 179.153 182.108C177.087 184.177 174.284 185.34 171.361 185.34C170.974 185.339 170.587 185.318 170.202 185.278C172.908 184.991 175.413 183.711 177.233 181.685C179.053 179.659 180.061 177.031 180.061 174.305Z" fill="#2F2E41"/>
<path d="M150.21 189.528L165.266 181.63L186.058 184.861L190.36 203.886L179.651 203.474L176.659 196.484V203.359L171.718 203.169L168.851 192.04L167.058 203.886L149.492 203.527L150.21 189.528Z" fill="#2F2E41"/>
<path d="M151.111 300.604L174.331 301.232C174.331 301.232 194.144 305.093 193.032 297.085C191.921 289.077 172.592 291.878 172.592 291.878L151.434 288.646L151.111 300.604Z" fill="#FBBEBE"/>
<path d="M132.739 225.5C131.572 225.323 130.38 225.569 129.378 226.194C128.376 226.819 127.63 227.781 127.273 228.908C122.728 243.252 108.723 291.253 122.637 297.838C139.026 305.595 150.985 305.254 150.985 305.254L157.387 289.472L151.559 283.995L145.338 243.939L142.357 226.959L132.739 225.5Z" fill="#575A89"/>
<path opacity="0.4" d="M137.047 252.212L139.702 278.795L162.93 288.763L137.047 282.782V252.212Z" fill="black"/>
<path d="M262.317 164.455C254.836 166.44 248.363 171.149 244.164 177.66L241.994 181.026L241.884 181.165L203.8 192.324C203.102 192.529 202.512 193 202.157 193.635C201.802 194.271 201.71 195.021 201.901 195.724L204.858 206.579C204.954 206.933 205.119 207.264 205.344 207.553C205.569 207.843 205.848 208.085 206.167 208.266C206.485 208.446 206.836 208.562 207.199 208.607C207.562 208.651 207.931 208.624 208.283 208.525L246.378 197.863L246.378 197.864L250.204 199.312C257.249 201.979 264.977 202.242 272.186 200.06L262.317 164.455Z" fill="#3F3D56"/>
<path d="M222.21 195.937C221.85 194.703 223.431 193.153 225.742 192.476C228.054 191.799 230.22 192.251 230.581 193.485C230.941 194.719 229.36 196.269 227.049 196.946C224.737 197.624 222.571 197.172 222.21 195.937Z" fill="#575A89"/>
<path d="M224.155 197.076C223.272 197.076 222.557 196.359 222.557 195.475C222.557 194.591 223.272 193.874 224.155 193.874C225.039 193.874 225.754 194.591 225.754 195.475C225.754 196.359 225.039 197.076 224.155 197.076Z" fill="#3F3D56"/>
<path d="M259.134 185.017C255.958 175.21 256.974 166.093 261.403 164.655C265.832 163.217 271.997 170.002 275.173 179.809C278.348 189.616 277.332 198.733 272.903 200.171C268.474 201.609 262.31 194.824 259.134 185.017Z" fill="#99B965"/>
<path opacity="0.4" d="M260.317 184.67C257.257 175.22 258.09 166.413 262.117 164.497C261.874 164.527 261.635 164.58 261.403 164.655C256.974 166.093 255.958 175.21 259.134 185.017C262.31 194.824 268.474 201.609 272.903 200.171C273.064 200.118 273.221 200.055 273.373 199.982C269.017 200.538 263.326 193.961 260.317 184.67Z" fill="black"/>
<path d="M261.817 164.49L348.251 97.3519C363.536 85.3941 378.203 72.6655 392.196 59.2155C416.835 35.6981 450.283 16.8956 489.225 6.88491C583.839 -17.4366 658.791 25.6884 692.882 89.0106C744.976 185.774 784.9 342.794 553.914 259.212C503.398 240.933 452.264 238.99 413.491 229.362L273.099 200.376L261.817 164.49Z" fill="#99B965"/>
<path d="M521.311 51.5138C518.745 51.5138 516.665 49.431 516.665 46.8618C516.665 44.2926 518.745 42.2099 521.311 42.2099C523.877 42.2099 525.957 44.2926 525.957 46.8618C525.957 49.431 523.877 51.5138 521.311 51.5138Z" fill="#F2F2F2"/>
<path d="M431.065 57.6144H432.274V56.4036H432.511V57.6144H433.72V57.851H432.511V59.0618H432.274V57.851H431.065V57.6144Z" fill="#F2F2F2"/>
<path d="M309.614 158.628H310.823V157.417H311.059V158.628H312.269V158.865H311.059V160.076H310.823V158.865H309.614V158.628Z" fill="#F2F2F2"/>
<path d="M318.242 189.863H319.451V188.652H319.687V189.863H320.896V190.099H319.687V191.31H319.451V190.099H318.242V189.863Z" fill="#F2F2F2"/>
<path d="M689.232 216.445H690.441V215.234H690.677V216.445H691.886V216.682H690.677V217.893H690.441V216.682H689.232V216.445Z" fill="#F2F2F2"/>
<path d="M636.138 71.5702H637.348V70.3594H637.584V71.5702H638.793V71.8068H637.584V73.0176H637.348V71.8068H636.138V71.5702Z" fill="#F2F2F2"/>
<path d="M429.738 195.179H430.947V193.968H431.183V195.179H432.392V195.416H431.183V196.627H430.947V195.416H429.738V195.179Z" fill="#F2F2F2"/>
<path d="M556.498 29.0381H557.707V27.8273H557.944V29.0381H559.153V29.2747H557.944V30.4855H557.707V29.2747H556.498V29.0381Z" fill="#F2F2F2"/>
<path d="M556.033 124.721L557.54 124.953C557.069 127.97 556.697 131.054 556.425 134.104L554.905 133.971C555.177 130.881 555.556 127.771 556.033 124.721Z" fill="#E6E6E6"/>
<path d="M560.155 106.552L561.615 106.997C560.732 109.921 559.943 112.918 559.272 115.902L557.779 115.563C558.463 112.546 559.266 109.516 560.155 106.552Z" fill="#E6E6E6"/>
<path d="M566.732 89.1266L568.119 89.7646C566.845 92.5492 565.65 95.4068 564.568 98.2644L563.141 97.7261C564.236 94.8352 565.438 91.9377 566.732 89.1266Z" fill="#E6E6E6"/>
<path d="M575.625 72.7917L576.913 73.6091C575.273 76.1876 573.7 78.8591 572.24 81.5373L570.9 80.8063C572.373 78.0949 573.966 75.3968 575.625 72.7917Z" fill="#E6E6E6"/>
<path d="M586.682 57.8191L587.843 58.8093C585.865 61.1352 583.941 63.5675 582.122 66.0264L580.901 65.116C582.733 62.6305 584.677 60.1716 586.682 57.8191Z" fill="#E6E6E6"/>
<path d="M599.676 44.4879L600.692 45.6243C598.409 47.6646 596.172 49.8111 594.042 51.9975L592.947 50.9276C595.104 48.7146 597.367 46.5481 599.676 44.4879Z" fill="#E6E6E6"/>
<path d="M614.357 33.0441L615.213 34.3067C612.678 36.0147 610.169 37.8356 607.76 39.7163L606.817 38.5134C609.26 36.6128 611.795 34.772 614.357 33.0441Z" fill="#E6E6E6"/>
<path d="M627.716 25.0959V26.8238C626.13 27.6545 624.557 28.5251 623.018 29.4156L622.254 28.0931C624.046 27.0564 625.867 26.0573 627.716 25.0959Z" fill="#E6E6E6"/>
<path d="M555.931 143.532L554.405 143.504C554.377 145.047 554.375 146.597 554.399 148.113L555.924 148.09C555.901 146.591 555.903 145.057 555.931 143.532Z" fill="#E6E6E6"/>
<path d="M645.629 255.64L647.135 255.872C646.664 258.89 646.292 261.973 646.02 265.024L644.501 264.891C644.773 261.8 645.151 258.69 645.629 255.64Z" fill="#E6E6E6"/>
<path d="M649.75 237.471L651.21 237.916C650.328 240.84 649.538 243.837 648.867 246.821L647.374 246.482C648.058 243.465 648.861 240.435 649.75 237.471Z" fill="#E6E6E6"/>
<path d="M656.327 220.046L657.714 220.684C656.44 223.468 655.245 226.326 654.164 229.184L652.737 228.645C653.832 225.754 655.033 222.857 656.327 220.046Z" fill="#E6E6E6"/>
<path d="M665.22 203.711L666.508 204.528C664.868 207.107 663.295 209.778 661.835 212.457L660.495 211.726C661.968 209.014 663.561 206.316 665.22 203.711Z" fill="#E6E6E6"/>
<path d="M676.277 188.738L677.438 189.728C675.461 192.054 673.536 194.487 671.717 196.946L670.496 196.035C672.328 193.55 674.273 191.091 676.277 188.738Z" fill="#E6E6E6"/>
<path d="M689.271 175.407L690.287 176.543C688.004 178.584 685.767 180.73 683.637 182.917L682.542 181.847C684.699 179.634 686.962 177.467 689.271 175.407Z" fill="#E6E6E6"/>
<path d="M703.952 163.963L704.808 165.226C702.273 166.934 699.764 168.755 697.355 170.635L696.412 169.433C698.855 167.532 701.39 165.691 703.952 163.963Z" fill="#E6E6E6"/>
<path d="M717.311 156.015V157.743C715.725 158.574 714.152 159.444 712.613 160.335L711.849 159.012C713.641 157.976 715.462 156.977 717.311 156.015Z" fill="#E6E6E6"/>
<path d="M645.526 274.451L644 274.423C643.972 275.966 643.97 277.516 643.994 279.033L645.519 279.009C645.496 277.51 645.498 275.976 645.526 274.451Z" fill="#E6E6E6"/>
<path d="M339.014 189.848L340.521 190.081C340.05 193.098 339.678 196.181 339.406 199.232L337.886 199.099C338.158 196.009 338.536 192.898 339.014 189.848Z" fill="#E6E6E6"/>
<path d="M343.136 171.679L344.596 172.124C343.713 175.048 342.923 178.045 342.253 181.029L340.76 180.69C341.443 177.673 342.246 174.643 343.136 171.679Z" fill="#E6E6E6"/>
<path d="M349.713 154.254L351.1 154.892C349.825 157.676 348.631 160.534 347.549 163.392L346.122 162.853C347.217 159.963 348.418 157.065 349.713 154.254Z" fill="#E6E6E6"/>
<path d="M358.606 137.919L359.893 138.736C358.254 141.315 356.681 143.986 355.221 146.665L353.88 145.934C355.354 143.222 356.947 140.524 358.606 137.919Z" fill="#E6E6E6"/>
<path d="M369.662 122.946L370.824 123.937C368.846 126.263 366.921 128.695 365.103 131.154L363.882 130.243C365.714 127.758 367.658 125.299 369.662 122.946Z" fill="#E6E6E6"/>
<path d="M382.657 109.615L383.672 110.752C381.389 112.792 379.153 114.938 377.022 117.125L375.927 116.055C378.084 113.842 380.347 111.675 382.657 109.615Z" fill="#E6E6E6"/>
<path d="M397.337 98.1714L398.193 99.434C395.658 101.142 393.15 102.963 390.74 104.844L389.798 103.641C392.24 101.74 394.776 99.8993 397.337 98.1714Z" fill="#E6E6E6"/>
<path d="M410.697 90.2232V91.9511C409.111 92.7818 407.538 93.6524 405.998 94.5429L405.235 93.2204C407.027 92.1837 408.848 91.1846 410.697 90.2232Z" fill="#E6E6E6"/>
<path d="M338.911 208.659L337.386 208.631C337.358 210.174 337.356 211.724 337.38 213.241L338.905 213.217C338.882 211.718 338.884 210.184 338.911 208.659Z" fill="#E6E6E6"/>
<path d="M633.918 132.843H635.043V131.716H635.262V132.843H636.388V133.062H635.262V134.189H635.043V133.062H633.918V132.843Z" fill="#F2F2F2"/>
<path d="M646.887 200.866H648.011V199.739H648.231V200.866H649.357V201.086H648.231V202.212H648.011V201.086H646.887V200.866Z" fill="#F2F2F2"/>
<path d="M684.939 260.482H686.065V259.356H686.285V260.482H687.409V260.702H686.285V261.829H686.065V260.702H684.939V260.482Z" fill="#F2F2F2"/>
<path d="M458.852 167.257C447.972 151.062 443.248 131.5 445.536 112.117C447.825 92.7347 456.974 74.8149 471.326 61.6077C485.677 48.4005 504.279 40.7805 523.76 40.1295C543.24 39.4785 562.309 45.8396 577.508 58.0592C592.706 70.2788 603.028 87.5479 606.602 106.735C610.176 125.922 606.765 145.756 596.988 162.64C587.211 179.525 571.715 192.342 553.31 198.767C534.905 205.192 514.81 204.8 496.669 197.661C495.493 201.865 493.294 205.711 490.269 208.855C487.245 211.999 483.489 214.343 479.338 215.677C475.187 217.011 470.771 217.293 466.484 216.499C462.197 215.704 458.174 213.858 454.775 211.125C451.376 208.392 448.706 204.857 447.005 200.838C445.305 196.818 444.626 192.439 445.03 188.093C445.434 183.746 446.908 179.568 449.32 175.931C451.732 172.295 455.007 169.315 458.852 167.257Z" fill="#3F3D56"/>
<path d="M525.444 75.051C544.129 75.051 556.984 85.4289 556.984 100.347C556.984 110.226 552.201 117.062 542.983 122.5C534.313 127.539 531.373 131.231 531.373 137.618C531.373 138.135 531.271 138.648 531.074 139.126C530.876 139.604 530.586 140.039 530.22 140.405C529.855 140.771 529.421 141.061 528.943 141.259C528.466 141.457 527.954 141.559 527.437 141.559H517.885C516.865 141.559 515.884 141.163 515.15 140.453C514.417 139.743 513.987 138.776 513.951 137.755L513.934 137.268C513.087 126.99 516.674 120.604 525.693 115.315C534.114 110.276 537.651 107.083 537.651 100.896C537.651 94.7092 531.672 90.1688 524.248 90.1688C518.605 90.1688 514.14 92.9192 512.091 97.4096C511.371 98.9297 510.232 100.212 508.807 101.104C507.383 101.995 505.733 102.46 504.053 102.443C497.581 102.443 493.305 95.5508 496.332 89.8223C501.12 80.7605 511.222 75.051 525.444 75.051ZM512.34 160.569C512.34 154.831 517.123 150.291 523.002 150.291C528.932 150.291 533.715 154.781 533.715 160.569C533.715 166.356 528.932 170.847 523.002 170.847C517.073 170.847 512.34 166.357 512.34 160.569Z" fill="#99B965"/>
</g>
<defs>
<clipPath id="clip0">
<rect width="733" height="516" fill="white" transform="matrix(-1 0 0 1 733 0)"/>
</clipPath>
</defs>
</svg>
