<svg width="27" height="27" viewBox="0 0 27 27" fill="none" xmlns="http://www.w3.org/2000/svg">
<g id="favorite_border_24px">
<path id="icon/action/favorite_border_24px" fill-rule="evenodd" clip-rule="evenodd" d="M13.5 5.52947C14.7263 4.08947 16.605 3.17822 18.5625 3.17822C22.0275 3.17822 24.75 5.90072 24.75 9.36572C24.75 13.6147 20.9313 17.0775 15.1455 22.324L15.1313 22.337L13.5 23.822L11.8688 22.3482L11.8244 22.3079C6.0555 17.0655 2.25004 13.6073 2.25004 9.36572C2.25004 5.90072 4.97254 3.17822 8.43754 3.17822C10.395 3.17822 12.2738 4.08947 13.5 5.52947ZM13.5001 20.7845L13.6126 20.672C18.9676 15.8233 22.5001 12.617 22.5001 9.36576C22.5001 7.11576 20.8126 5.42826 18.5626 5.42826C16.8301 5.42826 15.1426 6.54201 14.5576 8.08326H12.4538C11.8576 6.54201 10.1701 5.42826 8.43758 5.42826C6.18758 5.42826 4.50008 7.11576 4.50008 9.36576C4.50008 12.617 8.03258 15.8233 13.3876 20.672L13.5001 20.7845Z" fill="black" fill-opacity="0.54"/>
</g>
</svg>
