<svg width="28" height="28" viewBox="0 0 28 28" fill="none" xmlns="http://www.w3.org/2000/svg">
<g id="report_gmailerrorred_24px">
<path id="icon/content/report_gmailerrorred_24px" fill-rule="evenodd" clip-rule="evenodd" d="M18.7075 3.85L24.1675 9.31C24.3775 9.52 24.5059 9.82333 24.4942 10.1267V17.8733C24.4942 18.1883 24.3775 18.48 24.1559 18.7017L18.6959 24.1617C18.4742 24.3717 18.1825 24.5 17.8675 24.5H10.1325C9.82919 24.5 9.52586 24.3717 9.30419 24.15L3.84419 18.69C3.63419 18.4683 3.50586 18.1767 3.50586 17.8617V10.1267C3.50586 9.82333 3.63419 9.52 3.84419 9.31L9.31586 3.83833C9.52586 3.62833 9.82919 3.5 10.1325 3.5H17.8792C18.1825 3.5 18.4859 3.62833 18.7075 3.85ZM17.3892 22.1667L22.1725 17.3833V10.6167L17.3892 5.83333H10.6225L5.83919 10.6167V17.3833L10.6225 22.1667H17.3892ZM14.0059 17.5C13.3615 17.5 12.8392 18.0223 12.8392 18.6667C12.8392 19.311 13.3615 19.8333 14.0059 19.8333C14.6502 19.8333 15.1725 19.311 15.1725 18.6667C15.1725 18.0223 14.6502 17.5 14.0059 17.5ZM12.8392 9.33333C12.8392 8.69167 13.3642 8.16667 14.0059 8.16667C14.6475 8.16667 15.1725 8.69167 15.1725 9.33333V15.1667C15.1725 15.8083 14.6475 16.3333 14.0059 16.3333C13.3642 16.3333 12.8392 15.8083 12.8392 15.1667V9.33333Z" fill="black" fill-opacity="0.54"/>
</g>
</svg>
