<svg width="28" height="28" viewBox="0 0 28 28" fill="none" xmlns="http://www.w3.org/2000/svg">
<g id="help_outline_24px">
<path id="icon/action/help_outline_24px" fill-rule="evenodd" clip-rule="evenodd" d="M2.33301 14C2.33301 7.56 7.55967 2.33333 13.9997 2.33333C20.4397 2.33333 25.6663 7.56 25.6663 14C25.6663 20.44 20.4397 25.6667 13.9997 25.6667C7.55967 25.6667 2.33301 20.44 2.33301 14ZM4.66634 14C4.66634 19.145 8.85467 23.3333 13.9997 23.3333C19.1447 23.3333 23.333 19.145 23.333 14C23.333 8.85499 19.1447 4.66666 13.9997 4.66666C8.85467 4.66666 4.66634 8.85499 4.66634 14ZM15.1663 18.6667V21H12.833V18.6667H15.1663ZM9.54306 10.3017C10.1847 8.17833 12.3081 6.69666 14.7114 7.04666C16.7414 7.35 18.3397 9.065 18.6197 11.095C18.8858 12.9775 17.8448 13.8858 16.8399 14.7625C16.6553 14.9235 16.4719 15.0835 16.2981 15.2483C16.1581 15.3767 16.0297 15.505 15.9131 15.645C15.9072 15.6508 15.9014 15.6596 15.8956 15.6683C15.8897 15.6771 15.8839 15.6858 15.8781 15.6917C15.7614 15.8317 15.6447 15.9833 15.5514 16.1467C15.5397 16.1642 15.531 16.1817 15.5222 16.1992C15.5135 16.2167 15.5047 16.2342 15.4931 16.2517C15.2947 16.6017 15.1664 17.01 15.1664 17.5H12.8331C12.8331 16.9167 12.9264 16.4383 13.0664 16.0417C13.0715 16.0263 13.0744 16.0132 13.077 16.0014C13.0803 15.9862 13.0832 15.9731 13.0897 15.96C13.0956 15.9425 13.1043 15.9279 13.1131 15.9133C13.1218 15.8987 13.1306 15.8842 13.1364 15.8667C13.2181 15.6567 13.3231 15.4583 13.4281 15.2833C13.4339 15.2717 13.4397 15.2629 13.4456 15.2542C13.4514 15.2454 13.4572 15.2367 13.4631 15.225C13.4631 15.2192 13.466 15.2162 13.4689 15.2133C13.4718 15.2104 13.4747 15.2075 13.4747 15.2017C13.8721 14.6033 14.405 14.1934 14.9033 13.8102C15.6195 13.2594 16.2643 12.7635 16.3331 11.8417C16.4264 10.71 15.6097 9.625 14.5014 9.39166C13.2997 9.135 12.1914 9.84666 11.8181 10.885C11.6547 11.3283 11.2697 11.6667 10.7914 11.6667H10.5581C9.8464 11.6667 9.33306 10.9783 9.54306 10.3017Z" fill="black" fill-opacity="0.54"/>
</g>
</svg>
